<svg width="130" height="54" viewBox="0 0 130 54" fill="none" xmlns="http://www.w3.org/2000/svg">
<path d="M3.26 12V3.6H6.536C7.272 3.6 7.9 3.716 8.42 3.948C8.94 4.18 9.34 4.516 9.62 4.956C9.9 5.396 10.04 5.92 10.04 6.528C10.04 7.136 9.9 7.66 9.62 8.1C9.34 8.532 8.94 8.868 8.42 9.108C7.9 9.34 7.272 9.456 6.536 9.456H3.92L4.46 8.892V12H3.26ZM4.46 9.012L3.92 8.412H6.5C7.268 8.412 7.848 8.248 8.24 7.92C8.64 7.592 8.84 7.128 8.84 6.528C8.84 5.928 8.64 5.464 8.24 5.136C7.848 4.808 7.268 4.644 6.5 4.644H3.92L4.46 4.044V9.012ZM11.383 12V3.6H12.583V10.956H17.131V12H11.383ZM16.816 12L20.62 3.6H21.808L25.624 12H24.364L20.968 4.272H21.448L18.052 12H16.816ZM18.436 9.9L18.76 8.94H23.488L23.836 9.9H18.436ZM27.7032 12V4.644H24.8232V3.6H31.7712V4.644H28.8912V12H27.7032ZM30.9642 12L34.7682 3.6H35.9562L39.7723 12H38.5122L35.1163 4.272H35.5962L32.2002 12H30.9642ZM32.5842 9.9L32.9082 8.94H37.6362L37.9843 9.9H32.5842ZM41.6853 7.572H46.0173V8.604H41.6853V7.572ZM41.8053 12H40.6053V3.6H46.5333V4.644H41.8053V12ZM51.5007 12.096C50.8607 12.096 50.2647 11.988 49.7127 11.772C49.1687 11.556 48.6967 11.256 48.2967 10.872C47.8967 10.48 47.5847 10.024 47.3607 9.504C47.1367 8.984 47.0247 8.416 47.0247 7.8C47.0247 7.184 47.1367 6.616 47.3607 6.096C47.5847 5.576 47.8967 5.124 48.2967 4.74C48.6967 4.348 49.1687 4.044 49.7127 3.828C50.2567 3.612 50.8527 3.504 51.5007 3.504C52.1408 3.504 52.7287 3.612 53.2647 3.828C53.8087 4.036 54.2808 4.336 54.6808 4.728C55.0888 5.112 55.4008 5.564 55.6168 6.084C55.8408 6.604 55.9528 7.176 55.9528 7.8C55.9528 8.424 55.8408 8.996 55.6168 9.516C55.4008 10.036 55.0888 10.492 54.6808 10.884C54.2808 11.268 53.8087 11.568 53.2647 11.784C52.7287 11.992 52.1408 12.096 51.5007 12.096ZM51.5007 11.028C51.9647 11.028 52.3927 10.948 52.7847 10.788C53.1847 10.628 53.5287 10.404 53.8167 10.116C54.1127 9.82 54.3407 9.476 54.5007 9.084C54.6687 8.692 54.7527 8.264 54.7527 7.8C54.7527 7.336 54.6687 6.908 54.5007 6.516C54.3407 6.124 54.1127 5.784 53.8167 5.496C53.5287 5.2 53.1847 4.972 52.7847 4.812C52.3927 4.652 51.9647 4.572 51.5007 4.572C51.0287 4.572 50.5927 4.652 50.1927 4.812C49.8007 4.972 49.4567 5.2 49.1607 5.496C48.8647 5.784 48.6327 6.124 48.4647 6.516C48.3047 6.908 48.2247 7.336 48.2247 7.8C48.2247 8.264 48.3047 8.692 48.4647 9.084C48.6327 9.476 48.8647 9.82 49.1607 10.116C49.4567 10.404 49.8007 10.628 50.1927 10.788C50.5927 10.948 51.0287 11.028 51.5007 11.028ZM57.3669 12V3.6H60.6429C61.3789 3.6 62.0069 3.716 62.5269 3.948C63.0469 4.18 63.4469 4.516 63.7269 4.956C64.0069 5.396 64.1469 5.92 64.1469 6.528C64.1469 7.136 64.0069 7.66 63.7269 8.1C63.4469 8.532 63.0469 8.864 62.5269 9.096C62.0069 9.328 61.3789 9.444 60.6429 9.444H58.0269L58.5669 8.892V12H57.3669ZM62.9829 12L60.8469 8.952H62.1309L64.2909 12H62.9829ZM58.5669 9.012L58.0269 8.424H60.6069C61.3749 8.424 61.9549 8.26 62.3469 7.932C62.7469 7.596 62.9469 7.128 62.9469 6.528C62.9469 5.928 62.7469 5.464 62.3469 5.136C61.9549 4.808 61.3749 4.644 60.6069 4.644H58.0269L58.5669 4.044V9.012ZM65.6656 12V3.6H66.6496L70.4176 9.948H69.8896L73.6096 3.6H74.5936L74.6056 12H73.4536L73.4416 5.412H73.7176L70.4056 10.98H69.8536L66.5176 5.412H66.8176V12H65.6656ZM75.4346 12L79.2386 3.6H80.4266L84.2426 12H82.9826L79.5866 4.272H80.0666L76.6706 12H75.4346ZM77.0546 9.9L77.3786 8.94H82.1066L82.4546 9.9H77.0546ZM87.8783 12V3.6H91.4183C92.3143 3.6 93.1023 3.776 93.7823 4.128C94.4703 4.48 95.0023 4.972 95.3783 5.604C95.7623 6.236 95.9543 6.968 95.9543 7.8C95.9543 8.632 95.7623 9.364 95.3783 9.996C95.0023 10.628 94.4703 11.12 93.7823 11.472C93.1023 11.824 92.3143 12 91.4183 12H87.8783ZM89.0783 10.956H91.3463C92.0423 10.956 92.6423 10.824 93.1463 10.56C93.6583 10.296 94.0543 9.928 94.3343 9.456C94.6143 8.976 94.7543 8.424 94.7543 7.8C94.7543 7.168 94.6143 6.616 94.3343 6.144C94.0543 5.672 93.6583 5.304 93.1463 5.04C92.6423 4.776 92.0423 4.644 91.3463 4.644H89.0783V10.956ZM98.4643 7.224H102.784V8.244H98.4643V7.224ZM98.5723 10.956H103.468V12H97.3723V3.6H103.3V4.644H98.5723V10.956Z" fill="#0C8CE9"/>
<path d="M12.032 30.24C10.752 30.24 9.56 30.032 8.456 29.616C7.368 29.184 6.416 28.584 5.6 27.816C4.8 27.032 4.176 26.112 3.728 25.056C3.28 24 3.056 22.848 3.056 21.6C3.056 20.352 3.28 19.2 3.728 18.144C4.176 17.088 4.808 16.176 5.624 15.408C6.44 14.624 7.392 14.024 8.48 13.608C9.568 13.176 10.76 12.96 12.056 12.96C13.432 12.96 14.688 13.2 15.824 13.68C16.96 14.144 17.92 14.84 18.704 15.768L16.688 17.664C16.08 17.008 15.4 16.52 14.648 16.2C13.896 15.864 13.08 15.696 12.2 15.696C11.32 15.696 10.512 15.84 9.776 16.128C9.056 16.416 8.424 16.824 7.88 17.352C7.352 17.88 6.936 18.504 6.632 19.224C6.344 19.944 6.2 20.736 6.2 21.6C6.2 22.464 6.344 23.256 6.632 23.976C6.936 24.696 7.352 25.32 7.88 25.848C8.424 26.376 9.056 26.784 9.776 27.072C10.512 27.36 11.32 27.504 12.2 27.504C13.08 27.504 13.896 27.344 14.648 27.024C15.4 26.688 16.08 26.184 16.688 25.512L18.704 27.432C17.92 28.344 16.96 29.04 15.824 29.52C14.688 30 13.424 30.24 12.032 30.24ZM29.2139 30.24C27.9019 30.24 26.6939 30.024 25.5899 29.592C24.4859 29.16 23.5259 28.56 22.7099 27.792C21.8939 27.008 21.2619 26.096 20.8139 25.056C20.3659 24 20.1419 22.848 20.1419 21.6C20.1419 20.352 20.3659 19.208 20.8139 18.168C21.2619 17.112 21.8939 16.2 22.7099 15.432C23.5259 14.648 24.4859 14.04 25.5899 13.608C26.6939 13.176 27.8939 12.96 29.1899 12.96C30.5019 12.96 31.7019 13.176 32.7899 13.608C33.8939 14.04 34.8539 14.648 35.6699 15.432C36.4859 16.2 37.1179 17.112 37.5659 18.168C38.0139 19.208 38.2379 20.352 38.2379 21.6C38.2379 22.848 38.0139 24 37.5659 25.056C37.1179 26.112 36.4859 27.024 35.6699 27.792C34.8539 28.56 33.8939 29.16 32.7899 29.592C31.7019 30.024 30.5099 30.24 29.2139 30.24ZM29.1899 27.504C30.0379 27.504 30.8219 27.36 31.5419 27.072C32.2619 26.784 32.8859 26.376 33.4139 25.848C33.9419 25.304 34.3499 24.68 34.6379 23.976C34.9419 23.256 35.0939 22.464 35.0939 21.6C35.0939 20.736 34.9419 19.952 34.6379 19.248C34.3499 18.528 33.9419 17.904 33.4139 17.376C32.8859 16.832 32.2619 16.416 31.5419 16.128C30.8219 15.84 30.0379 15.696 29.1899 15.696C28.3419 15.696 27.5579 15.84 26.8379 16.128C26.1339 16.416 25.5099 16.832 24.9659 17.376C24.4379 17.904 24.0219 18.528 23.7179 19.248C23.4299 19.952 23.2859 20.736 23.2859 21.6C23.2859 22.448 23.4299 23.232 23.7179 23.952C24.0219 24.672 24.4379 25.304 24.9659 25.848C25.4939 26.376 26.1179 26.784 26.8379 27.072C27.5579 27.36 28.3419 27.504 29.1899 27.504ZM41.5451 30V13.2H44.1131L51.4571 25.464H50.1131L57.3371 13.2H59.9051L59.9291 30H56.9771L56.9531 17.832H57.5771L51.4331 28.08H50.0411L43.8011 17.832H44.5211V30H41.5451ZM64.4669 30V13.2H72.3389C74.3549 13.2 75.8909 13.6 76.9469 14.4C78.0029 15.184 78.5309 16.24 78.5309 17.568C78.5309 18.464 78.3229 19.232 77.9069 19.872C77.4909 20.496 76.9309 20.984 76.2269 21.336C75.5389 21.672 74.7869 21.84 73.9709 21.84L74.4029 20.976C75.3469 20.976 76.1949 21.152 76.9469 21.504C77.6989 21.84 78.2909 22.336 78.7229 22.992C79.1709 23.648 79.3949 24.464 79.3949 25.44C79.3949 26.88 78.8429 28 77.7389 28.8C76.6349 29.6 74.9949 30 72.8189 30H64.4669ZM67.5869 27.552H72.6269C73.7949 27.552 74.6909 27.36 75.3149 26.976C75.9389 26.592 76.2509 25.976 76.2509 25.128C76.2509 24.296 75.9389 23.688 75.3149 23.304C74.6909 22.904 73.7949 22.704 72.6269 22.704H67.3469V20.28H72.0029C73.0909 20.28 73.9229 20.088 74.4989 19.704C75.0909 19.32 75.3869 18.744 75.3869 17.976C75.3869 17.192 75.0909 16.608 74.4989 16.224C73.9229 15.84 73.0909 15.648 72.0029 15.648H67.5869V27.552ZM80.3487 30L87.9088 13.2H90.9808L98.5648 30H95.3008L88.7968 14.856H90.0448L83.5648 30H80.3487ZM83.8288 26.112L84.6688 23.664H93.7408L94.5807 26.112H83.8288ZM103.266 30V15.84H97.6976V13.2H111.954V15.84H106.386V30H103.266ZM117.175 20.184H125.527V22.752H117.175V20.184ZM117.415 27.384H126.895V30H114.295V13.2H126.559V15.816H117.415V27.384Z" fill="#5A5A5A"/>
<path d="M3.96307 53H0.588068L6.73295 35.5455H10.6364L16.7898 53H13.4148L8.75284 39.125H8.61648L3.96307 53ZM4.07386 46.1562H13.2784V48.696H4.07386V46.1562ZM32.0651 44.2727C32.0651 46.1534 31.7128 47.7642 31.0082 49.1051C30.3094 50.4403 29.3548 51.4631 28.1446 52.1733C26.9401 52.8835 25.5736 53.2386 24.0452 53.2386C22.5168 53.2386 21.1474 52.8835 19.9372 52.1733C18.7327 51.4574 17.7781 50.4318 17.0736 49.0966C16.3747 47.7557 16.0253 46.1477 16.0253 44.2727C16.0253 42.392 16.3747 40.7841 17.0736 39.4489C17.7781 38.108 18.7327 37.0824 19.9372 36.3722C21.1474 35.6619 22.5168 35.3068 24.0452 35.3068C25.5736 35.3068 26.9401 35.6619 28.1446 36.3722C29.3548 37.0824 30.3094 38.108 31.0082 39.4489C31.7128 40.7841 32.0651 42.392 32.0651 44.2727ZM28.8861 44.2727C28.8861 42.9489 28.6787 41.8324 28.2639 40.9233C27.8548 40.0085 27.2866 39.3182 26.5594 38.8523C25.8321 38.3807 24.994 38.1449 24.0452 38.1449C23.0963 38.1449 22.2582 38.3807 21.531 38.8523C20.8037 39.3182 20.2327 40.0085 19.8179 40.9233C19.4088 41.8324 19.2043 42.9489 19.2043 44.2727C19.2043 45.5966 19.4088 46.7159 19.8179 47.6307C20.2327 48.5398 20.8037 49.2301 21.531 49.7017C22.2582 50.1676 23.0963 50.4006 24.0452 50.4006C24.994 50.4006 25.8321 50.1676 26.5594 49.7017C27.2866 49.2301 27.8548 48.5398 28.2639 47.6307C28.6787 46.7159 28.8861 45.5966 28.8861 44.2727ZM39.649 53H36.274L42.4189 35.5455H46.3223L52.4757 53H49.1007L44.4388 39.125H44.3024L39.649 53ZM39.7598 46.1562H48.9643V48.696H39.7598V46.1562ZM62.1793 40.3438C62.0997 39.5994 61.7645 39.0199 61.1736 38.6051C60.5884 38.1903 59.827 37.983 58.8895 37.983C58.2304 37.983 57.6651 38.0824 57.1935 38.2812C56.7219 38.4801 56.3611 38.75 56.1111 39.0909C55.8611 39.4318 55.7332 39.821 55.7276 40.2585C55.7276 40.6222 55.8099 40.9375 55.9747 41.2045C56.1452 41.4716 56.3753 41.6989 56.6651 41.8864C56.9548 42.0682 57.2759 42.2216 57.6281 42.3466C57.9804 42.4716 58.3355 42.5767 58.6935 42.6619L60.3298 43.071C60.9889 43.2244 61.6224 43.4318 62.2304 43.6932C62.844 43.9545 63.3923 44.2841 63.8753 44.6818C64.3639 45.0795 64.7503 45.5597 65.0344 46.1222C65.3185 46.6847 65.4605 47.3437 65.4605 48.0994C65.4605 49.1222 65.1991 50.0227 64.6764 50.8011C64.1537 51.5739 63.398 52.179 62.4094 52.6165C61.4264 53.0483 60.2361 53.2642 58.8384 53.2642C57.4804 53.2642 56.3014 53.054 55.3014 52.6335C54.3071 52.2131 53.5287 51.5994 52.9662 50.7926C52.4094 49.9858 52.1082 49.0028 52.0628 47.8438H55.1736C55.219 48.4517 55.4065 48.9574 55.7361 49.3608C56.0656 49.7642 56.4946 50.0653 57.023 50.2642C57.5571 50.4631 58.1537 50.5625 58.8128 50.5625C59.5003 50.5625 60.1026 50.4602 60.6196 50.2557C61.1423 50.0455 61.5514 49.7557 61.8469 49.3864C62.1423 49.0114 62.2929 48.5739 62.2986 48.0739C62.2929 47.6193 62.1594 47.2443 61.898 46.9489C61.6366 46.6477 61.2702 46.3977 60.7986 46.1989C60.3327 45.9943 59.7872 45.8125 59.1622 45.6534L57.1764 45.142C55.7389 44.7727 54.6026 44.2131 53.7673 43.4631C52.9378 42.7074 52.523 41.7045 52.523 40.4545C52.523 39.4261 52.8014 38.5256 53.3582 37.7528C53.9207 36.9801 54.6849 36.3807 55.6509 35.9545C56.6168 35.5227 57.7105 35.3068 58.9321 35.3068C60.1707 35.3068 61.256 35.5227 62.1878 35.9545C63.1253 36.3807 63.8611 36.9744 64.3952 37.7358C64.9293 38.4915 65.2048 39.3608 65.2219 40.3438H62.1793ZM75.9652 40.3438C75.8857 39.5994 75.5504 39.0199 74.9595 38.6051C74.3743 38.1903 73.6129 37.983 72.6754 37.983C72.0163 37.983 71.451 38.0824 70.9794 38.2812C70.5078 38.4801 70.147 38.75 69.897 39.0909C69.647 39.4318 69.5192 39.821 69.5135 40.2585C69.5135 40.6222 69.5959 40.9375 69.7607 41.2045C69.9311 41.4716 70.1612 41.6989 70.451 41.8864C70.7408 42.0682 71.0618 42.2216 71.4141 42.3466C71.7663 42.4716 72.1214 42.5767 72.4794 42.6619L74.1158 43.071C74.7749 43.2244 75.4084 43.4318 76.0163 43.6932C76.63 43.9545 77.1783 44.2841 77.6612 44.6818C78.1499 45.0795 78.5362 45.5597 78.8203 46.1222C79.1044 46.6847 79.2464 47.3437 79.2464 48.0994C79.2464 49.1222 78.9851 50.0227 78.4624 50.8011C77.9396 51.5739 77.1839 52.179 76.1953 52.6165C75.2124 53.0483 74.022 53.2642 72.6243 53.2642C71.2663 53.2642 70.0874 53.054 69.0874 52.6335C68.093 52.2131 67.3146 51.5994 66.7521 50.7926C66.1953 49.9858 65.8942 49.0028 65.8487 47.8438H68.9595C69.005 48.4517 69.1925 48.9574 69.522 49.3608C69.8516 49.7642 70.2805 50.0653 70.8089 50.2642C71.343 50.4631 71.9396 50.5625 72.5987 50.5625C73.2862 50.5625 73.8885 50.4602 74.4055 50.2557C74.9283 50.0455 75.3374 49.7557 75.6328 49.3864C75.9283 49.0114 76.0788 48.5739 76.0845 48.0739C76.0788 47.6193 75.9453 47.2443 75.6839 46.9489C75.4226 46.6477 75.0561 46.3977 74.5845 46.1989C74.1186 45.9943 73.5732 45.8125 72.9482 45.6534L70.9624 45.142C69.5249 44.7727 68.3885 44.2131 67.5533 43.4631C66.7237 42.7074 66.3089 41.7045 66.3089 40.4545C66.3089 39.4261 66.5874 38.5256 67.1442 37.7528C67.7067 36.9801 68.4709 36.3807 69.4368 35.9545C70.4027 35.5227 71.4964 35.3068 72.718 35.3068C73.9567 35.3068 75.0419 35.5227 75.9737 35.9545C76.9112 36.3807 77.647 36.9744 78.1811 37.7358C78.7152 38.4915 78.9908 39.3608 79.0078 40.3438H75.9652ZM80.2653 53V35.5455H91.6176V38.196H83.4273V42.9347H91.0295V45.5852H83.4273V50.3494H91.6858V53H80.2653ZM84.7653 33.8239L86.6744 29.929H89.6915L87.075 33.8239H84.7653ZM98.9582 53H93.0435V35.5455H99.0776C100.811 35.5455 102.299 35.8949 103.543 36.5938C104.793 37.2869 105.754 38.2841 106.424 39.5852C107.095 40.8864 107.43 42.4432 107.43 44.2557C107.43 46.0739 107.092 47.6364 106.416 48.9432C105.745 50.25 104.776 51.2528 103.509 51.9517C102.248 52.6506 100.731 53 98.9582 53ZM96.2054 50.2642H98.8048C100.021 50.2642 101.035 50.0426 101.847 49.5994C102.66 49.1506 103.271 48.483 103.68 47.5966C104.089 46.7045 104.293 45.5909 104.293 44.2557C104.293 42.9205 104.089 41.8125 103.68 40.9318C103.271 40.0455 102.666 39.3835 101.864 38.946C101.069 38.5028 100.08 38.2812 98.8986 38.2812H96.2054V50.2642ZM111.796 35.5455V53H108.634V35.5455H111.796ZM129.017 44.2727C129.017 46.1534 128.664 47.7642 127.96 49.1051C127.261 50.4403 126.306 51.4631 125.096 52.1733C123.892 52.8835 122.525 53.2386 120.997 53.2386C119.468 53.2386 118.099 52.8835 116.889 52.1733C115.684 51.4574 114.73 50.4318 114.025 49.0966C113.326 47.7557 112.977 46.1477 112.977 44.2727C112.977 42.392 113.326 40.7841 114.025 39.4489C114.73 38.108 115.684 37.0824 116.889 36.3722C118.099 35.6619 119.468 35.3068 120.997 35.3068C122.525 35.3068 123.892 35.6619 125.096 36.3722C126.306 37.0824 127.261 38.108 127.96 39.4489C128.664 40.7841 129.017 42.392 129.017 44.2727ZM125.838 44.2727C125.838 42.9489 125.63 41.8324 125.215 40.9233C124.806 40.0085 124.238 39.3182 123.511 38.8523C122.784 38.3807 121.946 38.1449 120.997 38.1449C120.048 38.1449 119.21 38.3807 118.483 38.8523C117.755 39.3182 117.184 40.0085 116.769 40.9233C116.36 41.8324 116.156 42.9489 116.156 44.2727C116.156 45.5966 116.36 46.7159 116.769 47.6307C117.184 48.5398 117.755 49.2301 118.483 49.7017C119.21 50.1676 120.048 50.4006 120.997 50.4006C121.946 50.4006 122.784 50.1676 123.511 49.7017C124.238 49.2301 124.806 48.5398 125.215 47.6307C125.63 46.7159 125.838 45.5966 125.838 44.2727Z" fill="#5A5A5A"/>
</svg>
